# xmcd
#
# Track frame offsets:
#	150
#	14918
#	31183
#	46956
#	66320
#
# Disc length: 1152 seconds
#
# Revision: 1
# Processed by: cddbd v1.4PL0 Copyright (c) Steve Scherf et al.
# Submitted via: EasyCDDAExtractor 5.0.6
#
DISCID=40047e05
DTITLE=Funtex Blues Band - Demo-lition
DYEAR=1900
DGENRE=
TTITLE0=Come Together
TTITLE1=Walking By Myself
TTITLE2=I'm Ready
TTITLE3=Sugar Coated Love
TTITLE4=Bring Me Some Water
EXTD=
EXTT0=
EXTT1=
EXTT2=
EXTT3=
EXTT4=
PLAYORDER=
